<?xml version="1.0" encoding="UTF-8" standalone="no"?>
<!-- Generator: Adobe Illustrator 16.0.0, SVG Export Plug-In . SVG Version: 6.00 Build 0)  -->

<svg
   xmlns:dc="http://purl.org/dc/elements/1.1/"
   xmlns:cc="http://creativecommons.org/ns#"
   xmlns:rdf="http://www.w3.org/1999/02/22-rdf-syntax-ns#"
   xmlns:svg="http://www.w3.org/2000/svg"
   xmlns="http://www.w3.org/2000/svg"
   xmlns:xlink="http://www.w3.org/1999/xlink"
   xmlns:sodipodi="http://sodipodi.sourceforge.net/DTD/sodipodi-0.dtd"
   xmlns:inkscape="http://www.inkscape.org/namespaces/inkscape"
   version="1.1"
   id="Layer_1"
   x="0px"
   y="0px"
   width="276.404px"
   height="249.655px"
   viewBox="0 0 276.404 249.655"
   enable-background="new 0 0 276.404 249.655"
   xml:space="preserve"
   sodipodi:docname="logo.svg"
   inkscape:version="0.92.4 (5da689c313, 2019-01-14)"><metadata
   id="metadata962"><rdf:RDF><cc:Work
       rdf:about=""><dc:format>image/svg+xml</dc:format><dc:type
         rdf:resource="http://purl.org/dc/dcmitype/StillImage" /></cc:Work></rdf:RDF></metadata><defs
   id="defs960"><linearGradient
   id="linearGradient1076"
   inkscape:collect="always"><stop
     id="stop1080"
     offset="0"
     style="stop-color:#ffffff;stop-opacity:1;" /><stop
     id="stop1082"
     offset="1"
     style="stop-color:#ffffff;stop-opacity:0;" /></linearGradient><linearGradient
   inkscape:collect="always"
   xlink:href="#linearGradient1076"
   id="linearGradient1091"
   gradientUnits="userSpaceOnUse"
   x1="7.3167982"
   y1="124.827"
   x2="268.74774"
   y2="124.827" />
	
	

		
	
			
			
			
		
				
				
				
				
				
				
			
				
				
			
				
				
				
				
			
					
					
				
					
				
					
					
				
					
					
				
					
				
					
					
				
					
				<radialGradient
   inkscape:collect="always"
   xlink:href="#linearGradient1076"
   id="radialGradient1274"
   cx="172.9935"
   cy="126.8305"
   fx="172.9935"
   fy="126.8305"
   r="10.3555"
   gradientTransform="matrix(1,0,0,1.0000966,0,-0.01224765)"
   gradientUnits="userSpaceOnUse" /><radialGradient
   inkscape:collect="always"
   xlink:href="#linearGradient1076"
   id="radialGradient1276"
   cx="172.9935"
   cy="134.09"
   fx="172.9935"
   fy="134.09"
   r="24.9825"
   gradientTransform="matrix(1,0,0,1.2770139,0,-37.144795)"
   gradientUnits="userSpaceOnUse" /><radialGradient
   inkscape:collect="always"
   xlink:href="#linearGradient1076"
   id="radialGradient1278"
   cx="172.993"
   cy="134.08701"
   fx="172.993"
   fy="134.08701"
   r="23.1"
   gradientTransform="matrix(1,0,0,1.2994805,0,-40.156444)"
   gradientUnits="userSpaceOnUse" /><radialGradient
   inkscape:collect="always"
   xlink:href="#linearGradient1076"
   id="radialGradient1280"
   cx="149.188"
   cy="213.6665"
   fx="149.188"
   fy="213.6665"
   r="22.551001"
   gradientTransform="matrix(1,0,0,1.2539799,0,-54.266989)"
   gradientUnits="userSpaceOnUse" /><radialGradient
   inkscape:collect="always"
   xlink:href="#linearGradient1076"
   id="radialGradient1282"
   cx="97.836998"
   cy="207.81799"
   fx="97.836998"
   fy="207.81799"
   r="19.747"
   gradientTransform="matrix(1,0,0,1.1197144,0,-24.878804)"
   gradientUnits="userSpaceOnUse" /><radialGradient
   inkscape:collect="always"
   xlink:href="#linearGradient1076"
   id="radialGradient1284"
   cx="40.438499"
   cy="201.08949"
   fx="40.438499"
   fy="201.08949"
   r="28.0385"
   gradientUnits="userSpaceOnUse" /><radialGradient
   inkscape:collect="always"
   xlink:href="#linearGradient1076"
   id="radialGradient1286"
   cx="261.78"
   cy="118.415"
   fx="261.78"
   fy="118.415"
   r="6.0890002"
   gradientTransform="matrix(1,0,0,4.8021022,0,-450.22593)"
   gradientUnits="userSpaceOnUse" /><radialGradient
   inkscape:collect="always"
   xlink:href="#linearGradient1076"
   id="radialGradient1288"
   cx="224.3065"
   cy="126.267"
   fx="224.3065"
   fy="126.267"
   r="23.231501"
   gradientTransform="matrix(1,0,0,0.96209887,0,4.7856614)"
   gradientUnits="userSpaceOnUse" /><radialGradient
   inkscape:collect="always"
   xlink:href="#linearGradient1076"
   id="radialGradient1290"
   cx="124.855"
   cy="118.4155"
   fx="124.855"
   fy="118.4155"
   r="19.667"
   gradientTransform="matrix(1,0,0,1.4867799,0,-57.642283)"
   gradientUnits="userSpaceOnUse" /><radialGradient
   inkscape:collect="always"
   xlink:href="#linearGradient1076"
   id="radialGradient1292"
   cx="80.234001"
   cy="126.272"
   fx="80.234001"
   fy="126.272"
   r="19.948"
   gradientTransform="matrix(1,0,0,1.1204632,0,-15.21113)"
   gradientUnits="userSpaceOnUse" /><radialGradient
   inkscape:collect="always"
   xlink:href="#linearGradient1076"
   id="radialGradient1294"
   cx="30.726999"
   cy="119.6225"
   fx="30.726999"
   fy="119.6225"
   r="22.191"
   gradientTransform="matrix(1,0,0,1.2996034,0,-35.839313)"
   gradientUnits="userSpaceOnUse" /><radialGradient
   inkscape:collect="always"
   xlink:href="#linearGradient1076"
   id="radialGradient1296"
   cx="188.3795"
   cy="44.801498"
   fx="188.3795"
   fy="44.801498"
   r="21.068501"
   gradientTransform="matrix(1,0,0,1.0608491,0,-2.7261325)"
   gradientUnits="userSpaceOnUse" /><radialGradient
   inkscape:collect="always"
   xlink:href="#linearGradient1076"
   id="radialGradient1298"
   cx="151.1705"
   cy="44.311218"
   fx="151.1705"
   fy="44.311218"
   r="12.9385"
   gradientTransform="matrix(1,0,0,1.6909829,0,-30.618292)"
   gradientUnits="userSpaceOnUse" /><radialGradient
   inkscape:collect="always"
   xlink:href="#linearGradient1076"
   id="radialGradient1300"
   cx="107.992"
   cy="44.881001"
   fx="107.992"
   fy="44.881001"
   r="19.747"
   gradientTransform="matrix(1,0,0,1.1196637,0,-5.3706286)"
   gradientUnits="userSpaceOnUse" /><radialGradient
   inkscape:collect="always"
   xlink:href="#linearGradient1076"
   id="radialGradient1302"
   cx="35.772999"
   cy="38.1525"
   fx="35.772999"
   fy="38.1525"
   r="25.875999"
   gradientTransform="matrix(1,0,0,1.120749,0,-4.6068746)"
   gradientUnits="userSpaceOnUse" /></defs><sodipodi:namedview
   pagecolor="#ffffff"
   bordercolor="#666666"
   borderopacity="1"
   objecttolerance="10"
   gridtolerance="10"
   guidetolerance="10"
   inkscape:pageopacity="0"
   inkscape:pageshadow="2"
   inkscape:window-width="1920"
   inkscape:window-height="1000"
   id="namedview958"
   showgrid="false"
   inkscape:zoom="3.2164387"
   inkscape:cx="138.202"
   inkscape:cy="113.23101"
   inkscape:window-x="-11"
   inkscape:window-y="-11"
   inkscape:window-maximized="1"
   inkscape:current-layer="Layer_1" />
<path
   inkscape:connector-curvature="0"
   style="fill:#0a74ba;stroke:url(#radialGradient1302);stroke-width:1.37952756;stroke-miterlimit:4;stroke-dasharray:none;stroke-opacity:1"
   id="path899"
   d="m 9.897,38.312 v -0.161 c 0,-15.942 12.017,-28.999 29.241,-28.999 10.575,0 16.903,3.524 22.11,8.652 l -7.851,9.053 c -4.326,-3.925 -8.732,-6.33 -14.34,-6.33 -9.453,0 -16.262,7.852 -16.262,17.465 v 0.159 c 0,9.614 6.649,17.626 16.262,17.626 6.409,0 10.334,-2.563 14.741,-6.569 l 7.851,7.931 C 55.881,63.307 49.472,67.153 38.657,67.153 22.154,67.152 9.897,54.414 9.897,38.312 Z" /><path
   inkscape:connector-curvature="0"
   style="fill:#0a74ba;stroke:url(#linearGradient1091);stroke-width:1.37952756;stroke-miterlimit:4;stroke-dasharray:none;stroke-opacity:0.83455882"
   id="path901"
   d="m 70.779,7.709 h 12.177 v 58.48 H 70.779 Z" /><path
   inkscape:connector-curvature="0"
   style="fill:#0a74ba;stroke:url(#radialGradient1300);stroke-width:1.37952756;stroke-miterlimit:4;stroke-dasharray:none;stroke-opacity:1"
   id="path905"
   d="m 88.245,53.853 v -0.159 c 0,-9.374 7.13,-13.699 17.303,-13.699 4.327,0 7.451,0.72 10.495,1.763 v -0.722 c 0,-5.046 -3.125,-7.85 -9.213,-7.85 -4.646,0 -7.931,0.881 -11.856,2.323 L 91.93,26.216 c 4.727,-2.082 9.373,-3.445 16.663,-3.445 6.648,0 11.455,1.763 14.5,4.808 3.205,3.204 4.646,7.931 4.646,13.698 V 66.19 h -11.776 v -4.646 c -2.964,3.285 -7.049,5.447 -12.978,5.447 -8.091,0 -14.74,-4.646 -14.74,-13.138 z m 27.958,-2.804 v -2.162 c -2.083,-0.962 -4.806,-1.603 -7.771,-1.603 -5.207,0 -8.412,2.083 -8.412,5.929 v 0.159 c 0,3.284 2.724,5.208 6.649,5.208 5.689,0.001 9.534,-3.124 9.534,-7.531 z" /><path
   inkscape:connector-curvature="0"
   style="fill:#0a74ba;stroke:url(#radialGradient1298);stroke-width:1.37952756;stroke-miterlimit:4;stroke-dasharray:none;stroke-opacity:1"
   id="path907"
   d="m 138.233,23.252 h 12.176 v 8.651 c 2.484,-5.928 6.49,-9.772 13.7,-9.452 v 12.737 h -0.642 c -8.092,0 -13.059,4.887 -13.059,15.141 V 66.19 H 138.232 V 23.252 Z" /><path
   inkscape:connector-curvature="0"
   style="fill:#0a74ba;stroke:url(#radialGradient1296);stroke-width:1.37952756;stroke-miterlimit:4;stroke-dasharray:none;stroke-opacity:1"
   id="path911"
   d="m 167.311,44.961 v -0.16 c 0,-12.258 8.732,-22.35 21.229,-22.35 14.34,0 20.908,11.134 20.908,23.311 0,0.961 -0.079,2.083 -0.16,3.204 h -29.881 c 1.202,5.528 5.047,8.412 10.495,8.412 4.085,0 7.05,-1.283 10.414,-4.407 l 6.969,6.17 c -4.005,4.966 -9.772,8.011 -17.543,8.011 -12.898,0 -22.431,-9.053 -22.431,-22.191 z m 30.282,-3.605 c -0.722,-5.448 -3.927,-9.132 -9.053,-9.132 -5.047,0 -8.332,3.605 -9.293,9.132 z" /><path
   inkscape:connector-curvature="0"
   style="fill:#0a74ba;stroke:url(#radialGradient1294);stroke-width:1.37952756;stroke-miterlimit:4;stroke-dasharray:none;stroke-opacity:1"
   id="path915"
   d="m 8.536,139.489 7.29,-8.733 c 5.047,4.167 10.334,6.81 16.743,6.81 5.047,0 8.091,-2.003 8.091,-5.286 v -0.16 c 0,-3.124 -1.923,-4.728 -11.295,-7.13 -11.296,-2.884 -18.586,-6.008 -18.586,-17.144 v -0.16 c 0,-10.174 8.172,-16.903 19.627,-16.903 8.172,0 15.141,2.563 20.829,7.13 l -6.409,9.292 c -4.967,-3.444 -9.854,-5.528 -14.58,-5.528 -4.726,0 -7.21,2.164 -7.21,4.887 v 0.161 c 0,3.685 2.403,4.887 12.097,7.37 11.375,2.963 17.785,7.05 17.785,16.823 v 0.16 c 0,11.136 -8.492,17.384 -20.588,17.384 -8.494,-10e-4 -17.066,-2.964 -23.794,-8.973 z" /><path
   inkscape:connector-curvature="0"
   style="fill:#0a74ba;stroke:url(#radialGradient1292);stroke-width:1.37952756;stroke-miterlimit:4;stroke-dasharray:none;stroke-opacity:1"
   id="path917"
   d="m 60.286,126.432 v -0.161 c 0,-12.257 9.374,-22.35 22.511,-22.35 8.091,0 13.138,2.723 17.144,7.209 l -7.451,8.012 c -2.723,-2.884 -5.447,-4.726 -9.773,-4.726 -6.088,0 -10.414,5.367 -10.414,11.695 v 0.16 c 0,6.569 4.246,11.856 10.895,11.856 4.086,0 6.89,-1.763 9.854,-4.565 l 7.13,7.209 c -4.167,4.566 -8.973,7.852 -17.544,7.852 -12.899,-10e-4 -22.352,-9.935 -22.352,-22.191 z" /><path
   d="m 105.188,89.175 h 12.176 v 21.63 c 2.804,-3.604 6.409,-6.889 12.578,-6.889 9.212,0 14.58,6.087 14.58,15.942 v 27.798 h -12.177 v -23.952 c 0,-5.769 -2.724,-8.732 -7.37,-8.732 -4.646,0 -7.611,2.963 -7.611,8.732 v 23.952 h -12.176 z"
   id="path923"
   style="fill:#0a74ba;stroke:url(#radialGradient1290);stroke-width:1.37952756;stroke-miterlimit:4;stroke-dasharray:none;stroke-opacity:1"
   inkscape:connector-curvature="0" /><path
   d="m 201.075,126.427 v -0.161 c 0,-12.337 9.934,-22.35 23.312,-22.35 13.298,0 23.151,9.854 23.151,22.191 v 0.159 c 0,12.338 -9.933,22.352 -23.312,22.352 -13.297,-0.001 -23.151,-9.854 -23.151,-22.191 z m 34.447,0 v -0.161 c 0,-6.329 -4.565,-11.855 -11.295,-11.855 -6.97,0 -11.136,5.368 -11.136,11.696 v 0.159 c 0,6.329 4.566,11.856 11.296,11.856 6.97,0 11.135,-5.367 11.135,-11.695 z"
   id="path925"
   style="fill:#0a74ba;stroke:url(#radialGradient1288);stroke-width:1.37952756;stroke-miterlimit:4;stroke-dasharray:none;stroke-opacity:1"
   inkscape:connector-curvature="0" /><path
   inkscape:connector-curvature="0"
   style="fill:#0a74ba;stroke:url(#radialGradient1286);stroke-width:1.37952756;stroke-miterlimit:4;stroke-dasharray:none;stroke-opacity:1"
   id="path929"
   d="m 255.691,89.175 h 12.178 v 58.48 h -12.178 z" /><path
   inkscape:connector-curvature="0"
   style="fill:#0a74ba;stroke:url(#radialGradient1284);stroke-width:1.37952756;stroke-miterlimit:4;stroke-dasharray:none;stroke-opacity:1"
   id="path933"
   d="m 12.4,173.051 h 13.298 l 14.741,23.713 14.74,-23.713 h 13.298 v 56.077 H 56.22 v -36.61 L 40.439,216.47 H 40.118 L 24.497,192.758 v 36.37 H 12.4 Z" /><path
   inkscape:connector-curvature="0"
   style="fill:#0a74ba;stroke:url(#radialGradient1282);stroke-width:1.37952756;stroke-miterlimit:4;stroke-dasharray:none;stroke-opacity:1"
   id="path935"
   d="m 78.09,216.79 v -0.159 c 0,-9.372 7.13,-13.699 17.303,-13.699 4.326,0 7.451,0.721 10.495,1.763 v -0.722 c 0,-5.047 -3.125,-7.851 -9.213,-7.851 -4.646,0 -7.93,0.882 -11.856,2.324 l -3.044,-9.294 c 4.727,-2.082 9.373,-3.445 16.663,-3.445 6.648,0 11.455,1.763 14.5,4.808 3.205,3.204 4.646,7.932 4.646,13.698 v 24.915 h -11.776 v -4.646 c -2.964,3.284 -7.049,5.447 -12.978,5.447 -8.091,0 -14.74,-4.646 -14.74,-13.139 z m 27.958,-2.804 v -2.162 c -2.083,-0.961 -4.806,-1.603 -7.771,-1.603 -5.207,0 -8.412,2.083 -8.412,5.929 v 0.159 c 0,3.284 2.724,5.209 6.649,5.209 5.689,0.001 9.534,-3.124 9.534,-7.532 z" /><path
   inkscape:connector-curvature="0"
   style="fill:#0a74ba;stroke:url(#radialGradient1280);stroke-width:1.37952756;stroke-miterlimit:4;stroke-dasharray:none;stroke-opacity:1"
   id="path939"
   d="m 126.637,186.189 h 12.177 v 6.168 c 2.964,-4.006 7.05,-6.969 13.378,-6.969 10.015,0 19.547,7.85 19.547,22.189 v 0.16 c 0,14.341 -9.373,22.19 -19.547,22.19 -6.489,0 -10.495,-2.964 -13.378,-6.408 v 18.426 h -12.177 z m 32.925,21.549 v -0.16 c 0,-7.129 -4.807,-11.857 -10.494,-11.857 -5.688,0 -10.415,4.729 -10.415,11.857 v 0.16 c 0,7.13 4.726,11.855 10.415,11.855 5.687,0.001 10.494,-4.645 10.494,-11.855 z" /><path
   d="m 196.093,127.173 c 0,-12.759 -10.345,-23.104 -23.101,-23.104 -12.76,0 -23.099,10.345 -23.099,23.104 0,10.688 9.232,18.046 11.794,21.338 3.893,5.007 11.305,15.594 11.305,15.594 0,0 7.409,-10.587 11.305,-15.594 2.553,-3.292 11.796,-10.877 11.796,-21.338"
   id="path943"
   style="fill:#ffffff;stroke:url(#radialGradient1278);stroke-width:1.37952756;stroke-miterlimit:4;stroke-dasharray:none;stroke-opacity:1"
   inkscape:connector-curvature="0" /><path
   inkscape:connector-curvature="0"
   d="m 172.992,105.961 c 11.696,0 21.214,9.513 21.214,21.211 0,7.795 -5.82,14.062 -9.296,17.809 -0.843,0.906 -1.576,1.693 -2.101,2.367 -2.732,3.508 -7.157,9.71 -9.816,13.485 -0.717,-1.023 -1.642,-2.322 -2.657,-3.746 -1.738,-2.433 -4.979,-6.937 -7.161,-9.744 -0.533,-0.673 -1.272,-1.467 -2.149,-2.402 -3.46,-3.67 -9.247,-9.827 -9.247,-17.769 -0.001,-11.698 9.514,-21.211 21.213,-21.211 m 0,-3.774 c -13.778,0 -24.981,11.207 -24.981,24.986 0,9.425 6.421,16.26 10.264,20.353 l 0.134,0.142 c 0.748,0.796 1.391,1.484 1.792,1.996 3.601,4.63 10.446,14.382 11.226,15.494 0.148,0.222 0.354,0.416 0.583,0.561 0.297,0.182 0.638,0.274 0.98,0.274 0.618,0 1.198,-0.299 1.549,-0.804 0.069,-0.096 7.396,-10.573 11.248,-15.525 0.419,-0.532 1.09,-1.262 1.887,-2.116 3.854,-4.151 10.302,-11.103 10.302,-20.374 -0.002,-13.78 -11.207,-24.987 -24.984,-24.987"
   id="path945"
   style="fill:#0a74ba;stroke:url(#radialGradient1276);stroke-width:1.37952756;stroke-miterlimit:4;stroke-dasharray:none;stroke-opacity:1" /><path
   inkscape:connector-curvature="0"
   d="m 183.349,126.835 c 0,-5.723 -4.638,-10.361 -10.357,-10.361 -5.717,0 -10.354,4.638 -10.354,10.361 0,5.715 4.638,10.352 10.354,10.352 5.719,0 10.357,-4.637 10.357,-10.352"
   id="path947"
   style="fill:#0a74ba;stroke:url(#radialGradient1274);stroke-width:1.37952756;stroke-miterlimit:4;stroke-dasharray:none;stroke-opacity:1" />

</svg>