<?xml version="1.0" encoding="UTF-8" standalone="no"?>
<!-- Created with Inkscape (http://www.inkscape.org/) -->

<svg
   xmlns:dc="http://purl.org/dc/elements/1.1/"
   xmlns:cc="http://creativecommons.org/ns#"
   xmlns:rdf="http://www.w3.org/1999/02/22-rdf-syntax-ns#"
   xmlns:svg="http://www.w3.org/2000/svg"
   xmlns="http://www.w3.org/2000/svg"
   xmlns:sodipodi="http://sodipodi.sourceforge.net/DTD/sodipodi-0.dtd"
   xmlns:inkscape="http://www.inkscape.org/namespaces/inkscape"
   width="30"
   height="60"
   viewBox="0 0 30 60"
   version="1.1"
   id="SVGRoot"
   sodipodi:docname="parkingMetre.svg"
   inkscape:version="0.92.4 (5da689c313, 2019-01-14)">
  <defs
     id="defs1384">
    <filter
       style="color-interpolation-filters:sRGB"
       inkscape:label="Drop Shadow"
       id="filter2492"
       width="1.59"
       height="1.26"
       x="-0.20999999">
      <feFlood
         flood-opacity="0.498039"
         flood-color="rgb(0,0,0)"
         result="flood"
         id="feFlood2482" />
      <feComposite
         in="flood"
         in2="SourceGraphic"
         operator="in"
         result="composite1"
         id="feComposite2484" />
      <feGaussianBlur
         in="composite1"
         stdDeviation="2"
         result="blur"
         id="feGaussianBlur2486" />
      <feOffset
         dx="1"
         dy="2"
         result="offset"
         id="feOffset2488" />
      <feComposite
         in="SourceGraphic"
         in2="offset"
         operator="over"
         result="fbSourceGraphic"
         id="feComposite2490" />
      <feColorMatrix
         result="fbSourceGraphicAlpha"
         in="fbSourceGraphic"
         values="0 0 0 -1 0 0 0 0 -1 0 0 0 0 -1 0 0 0 0 1 0"
         id="feColorMatrix2494" />
      <feFlood
         id="feFlood2496"
         flood-opacity="0.498039"
         flood-color="rgb(0,0,0)"
         result="flood"
         in="fbSourceGraphic" />
      <feComposite
         in2="fbSourceGraphic"
         id="feComposite2498"
         in="flood"
         operator="in"
         result="composite1" />
      <feGaussianBlur
         id="feGaussianBlur2500"
         in="composite1"
         stdDeviation="2"
         result="blur" />
      <feOffset
         id="feOffset2502"
         dx="1"
         dy="2"
         result="offset" />
      <feComposite
         in2="offset"
         id="feComposite2504"
         in="fbSourceGraphic"
         operator="over"
         result="composite2" />
    </filter>
  </defs>
  <sodipodi:namedview
     id="base"
     pagecolor="#ffffff"
     bordercolor="#666666"
     borderopacity="1.0"
     inkscape:pageopacity="0.0"
     inkscape:pageshadow="2"
     inkscape:zoom="8.0453038"
     inkscape:cx="3.0283689"
     inkscape:cy="36.680921"
     inkscape:document-units="px"
     inkscape:current-layer="layer1"
     showgrid="false"
     inkscape:window-width="1920"
     inkscape:window-height="1000"
     inkscape:window-x="-11"
     inkscape:window-y="-11"
     inkscape:window-maximized="1"
     inkscape:grid-bbox="true"
     inkscape:pagecheckerboard="true"
     fit-margin-top="0"
     fit-margin-left="0"
     fit-margin-right="0"
     fit-margin-bottom="0" />
  <metadata
     id="metadata1387">
    <rdf:RDF>
      <cc:Work
         rdf:about="">
        <dc:format>image/svg+xml</dc:format>
        <dc:type
           rdf:resource="http://purl.org/dc/dcmitype/StillImage" />
        <dc:title></dc:title>
      </cc:Work>
    </rdf:RDF>
  </metadata>
  <g
     inkscape:label="Layer 1"
     inkscape:groupmode="layer"
     id="layer1"
     transform="translate(-7.35276,7.860448)">
    <g
       id="g2324"
       style="filter:url(#filter2492)"
       transform="translate(0.24859223,0.12429611)">
      <g
         id="g4"
         transform="matrix(0.50068259,0,0,0.50068259,-3.4127853,-6.879904)">
        <path
           sodipodi:nodetypes="ssccsccssssccscccssccsccscccssssscsccsscccccccccccccccccccsssssssssssssssscsccssssc"
           id="path2"
           d="m 50,14.346 c -11.267,0 -20.419,9.517 -20.419,21.196 v 0.14 l 6.565,33.072 c 0.473,2.358 2.614,4.211 5.007,4.211 h 2.365 1.892 v 27.8927 c 0,1.376 1.112,2.526 2.476,2.526 h 4.2 c 1.363,0 2.504,-1.15 2.504,-2.526 V 72.965 h 1.864 2.364 c 2.365,0 4.507,-1.853 4.979,-4.211 l 6.594,-33.072 c 0,-0.028 0.027,-0.084 0.027,-0.14 C 70.419,23.863 61.267,14.346 50,14.346 Z m 0,1.572 c 10.349,0 18.778,8.703 18.834,19.512 l -6.538,32.987 c -0.334,1.601 -1.975,2.948 -3.478,2.948 H 56.454 43.519 41.154 c -1.53,0 -3.144,-1.348 -3.449,-2.948 L 31.167,35.542 V 35.514 C 31.166,24.677 39.596,15.918 50,15.918 Z m 0,5.868 c -7.316,0 -13.242,6.176 -13.242,13.728 0,0.421 0.362,0.786 0.779,0.786 h 24.898 c 0.417,0 0.778,-0.365 0.778,-0.786 C 63.214,27.962 57.316,21.786 50,21.786 Z m -0.779,1.628 v 2.751 c -0.027,0.421 0.362,0.786 0.779,0.786 0.417,0 0.778,-0.365 0.778,-0.786 v -2.751 c 2.671,0.168 5.063,1.292 6.928,3.032 l -1.836,1.881 c -0.362,0.281 -0.39,0.871 -0.084,1.179 0.334,0.309 0.891,0.281 1.169,-0.056 l 1.863,-1.853 c 1.586,1.938 2.588,4.408 2.754,7.131 H 50.778 v -4.941 c 0.028,-0.449 -0.417,-0.87 -0.89,-0.814 -0.361,0.056 -0.695,0.421 -0.668,0.814 v 4.941 H 38.399 c 0.167,-2.723 1.196,-5.193 2.782,-7.131 l 1.836,1.853 c 0.278,0.309 0.807,0.309 1.112,0 0.278,-0.281 0.307,-0.814 0,-1.123 l -1.836,-1.881 c 1.865,-1.713 4.258,-2.864 6.928,-3.032 z m 0,21.252 c -1.391,0 -2.503,1.123 -2.503,2.499 v 11.651 c 0,1.376 1.112,2.555 2.503,2.555 h 1.53 c 1.391,0 2.504,-1.179 2.504,-2.555 V 47.165 c 0,-1.375 -1.113,-2.499 -2.504,-2.499 z m 0,1.572 h 1.53 c 0.528,0 0.946,0.393 0.946,0.926 v 11.651 c 0,0.533 -0.418,0.955 -0.946,0.955 h -1.53 c -0.528,0 -0.945,-0.422 -0.945,-0.955 v -11.65 c -0.001,-0.534 0.416,-0.927 0.945,-0.927 z m -2.253,26.727 h 6.036 v 27.8927 c 0,0.533 -0.389,0.955 -0.918,0.955 h -4.2 c -0.528,0 -0.918,-0.422 -0.918,-0.955 z"
           inkscape:connector-curvature="0" />
      </g>
      <path
         inkscape:connector-curvature="0"
         id="path1950"
         d="M 16.666918,28.717003 C 16.187189,28.518988 15.860284,28.225039 15.639697,27.79334 15.550759,27.619283 15.193971,25.89555 13.86275,19.208457 l -1.665664,-8.367098 0.04428,-0.62166 c 0.288553,-4.0508494 2.860986,-7.4395755 6.57162,-8.6569489 2.241775,-0.73547441 4.69743,-0.5549247 6.830169,0.5021814 2.879422,1.4272049 4.872982,4.2554376 5.29585,7.5131396 0.147795,1.1385869 0.257341,0.4619859 -1.554304,9.6000459 -0.896058,4.519776 -1.661834,8.306763 -1.701726,8.415528 -0.156698,0.427242 -0.565982,0.864026 -1.017305,1.085657 l -0.250145,0.122839 -4.746093,0.01035 -4.746094,0.01035 z m 5.886369,-4.977877 c 0.266132,-0.141636 0.561034,-0.491531 0.648411,-0.769326 0.06701,-0.213033 0.07286,-0.534256 0.06189,-3.397757 -0.01195,-3.11788 -0.01343,-3.165325 -0.105402,-3.364163 -0.119041,-0.257369 -0.370517,-0.508845 -0.627886,-0.627886 -0.179802,-0.08316 -0.280346,-0.09328 -0.926779,-0.09328 -0.701993,0 -0.732226,0.0038 -0.948781,0.118027 -0.234285,0.123622 -0.446278,0.33459 -0.577497,0.574705 -0.0724,0.132475 -0.07773,0.369766 -0.07773,3.4601 0,3.764754 -0.02886,3.466508 0.374619,3.871634 0.303879,0.305121 0.461618,0.3458 1.295303,0.334047 0.627764,-0.0089 0.722495,-0.02022 0.883853,-0.106098 z m 5.442146,-12.467445 c 0.233154,-0.09742 0.259042,-0.188529 0.231288,-0.814005 C 28.154006,8.818955 27.472864,7.2519214 26.31017,6.0484597 25.38143,5.0871557 24.356827,4.4891167 23.129396,4.1919096 20.928991,3.6591091 18.653595,4.3138619 17.013174,5.9518731 c -1.12236,1.1207114 -1.824947,2.598453 -1.999127,4.2047369 -0.07404,0.682835 -0.06362,0.842299 0.06509,0.995256 0.06125,0.07279 0.155183,0.14083 0.20874,0.151196 0.05356,0.01037 2.901174,0.02154 6.328036,0.02483 5.283084,0.0051 6.253299,-0.0035 6.37952,-0.05621 z"
         style="opacity:1;fill:#ffffff;fill-opacity:1;stroke:none;stroke-width:3.66209483;stroke-miterlimit:4;stroke-dasharray:none;stroke-opacity:1" />
      <path
         inkscape:connector-curvature="0"
         id="path1952"
         d="m 15.84668,10.374826 c 0,-0.241795 0.142619,-0.9582794 0.272714,-1.3700487 0.164798,-0.5216117 0.445315,-1.1092225 0.73426,-1.5380859 0.385825,-0.5726579 0.280841,-0.5742675 0.875866,0.013429 0.475572,0.469714 0.534319,0.5139151 0.683044,0.5139151 0.237618,0 0.378452,-0.1547162 0.378452,-0.4157577 0,-0.1953062 -0.01166,-0.2120654 -0.494271,-0.7102465 L 17.802474,6.3578105 17.978141,6.2043724 c 0.775673,-0.677518 1.947422,-1.1972751 2.955209,-1.3108529 l 0.274658,-0.030954 v 0.756127 0.756127 l 0.128455,0.1284555 c 0.138389,0.1383881 0.278787,0.1612704 0.466034,0.075955 0.208115,-0.094823 0.240472,-0.2293795 0.240472,-1.0000044 V 4.8739179 h 0.105008 c 0.382855,0 1.315048,0.2564487 1.855196,0.5103692 0.355973,0.1673409 1.009431,0.5895034 1.269776,0.8203316 l 0.175781,0.1558516 -0.516357,0.5242239 c -0.504435,0.5121204 -0.516357,0.5287726 -0.516357,0.7212316 0,0.1481924 0.0245,0.2194319 0.09888,0.2875075 0.261867,0.2396814 0.414139,0.1756784 1.023778,-0.4303132 l 0.485448,-0.482544 0.09214,0.1002354 c 0.136372,0.1483598 0.46424,0.6723043 0.640216,1.0230869 0.302499,0.602991 0.543356,1.4446898 0.619328,2.1643066 l 0.02436,0.230713 H 24.723411 22.046666 L 22.033831,9.1768983 22.020996,7.8548788 21.87748,7.726703 C 21.721268,7.5871873 21.625623,7.5703159 21.448479,7.6510281 21.220546,7.7548815 21.208008,7.8368075 21.208008,9.2223215 V 10.498918 H 18.527344 15.84668 Z"
         style="opacity:1;fill:#ffffba;fill-opacity:1;stroke:none;stroke-width:3.66209483;stroke-miterlimit:4;stroke-dasharray:none;stroke-opacity:1" />
      <path
         inkscape:connector-curvature="0"
         id="path1954"
         d="m 20.997808,22.954747 c -0.234567,-0.164298 -0.229253,-0.08791 -0.229253,-3.295394 0,-3.238424 -0.0031,-3.196156 0.245884,-3.30962 0.06268,-0.02856 0.336739,-0.05003 0.63847,-0.05003 0.525711,0 0.529372,7.16e-4 0.657112,0.128456 l 0.128456,0.128455 -9.78e-4,3.090539 c -9.04e-4,2.861885 -0.0066,3.097473 -0.0769,3.184272 -0.131157,0.161916 -0.250941,0.191911 -0.766385,0.191911 -0.380588,0 -0.52164,-0.01622 -0.596402,-0.06858 z"
         style="opacity:1;fill:#bebebd;fill-opacity:1;stroke:none;stroke-width:3.66209483;stroke-miterlimit:4;stroke-dasharray:none;stroke-opacity:1" />
      <path
         inkscape:connector-curvature="0"
         id="path1956"
         d="m 20.338629,44.004551 c -0.242906,-0.170138 -0.229254,0.26661 -0.229254,-7.334017 v -7.01146 h 1.494141 1.49414 v 7.029183 c 0,5.356172 -0.0125,7.056607 -0.0525,7.144408 -0.10256,0.225097 -0.195376,0.240472 -1.451652,0.240472 -0.97728,0 -1.172161,-0.01065 -1.254874,-0.06859 z"
         style="opacity:1;fill:#bebebd;fill-opacity:1;stroke:none;stroke-width:3.66209483;stroke-miterlimit:4;stroke-dasharray:none;stroke-opacity:1" />
    </g>
  </g>
</svg>
