<?xml version="1.0" encoding="UTF-8" standalone="no"?>
<!-- Created with Inkscape (http://www.inkscape.org/) -->

<svg
   xmlns:dc="http://purl.org/dc/elements/1.1/"
   xmlns:cc="http://creativecommons.org/ns#"
   xmlns:rdf="http://www.w3.org/1999/02/22-rdf-syntax-ns#"
   xmlns:svg="http://www.w3.org/2000/svg"
   xmlns="http://www.w3.org/2000/svg"
   xmlns:sodipodi="http://sodipodi.sourceforge.net/DTD/sodipodi-0.dtd"
   xmlns:inkscape="http://www.inkscape.org/namespaces/inkscape"
   width="25"
   height="25"
   viewBox="0 0 25 25"
   version="1.1"
   id="SVGRoot"
   inkscape:version="0.92.4 (5da689c313, 2019-01-14)"
   sodipodi:docname="elephant.svg">
  <defs
     id="defs1377" />
  <sodipodi:namedview
     id="base"
     pagecolor="#ffffff"
     bordercolor="#666666"
     borderopacity="1.0"
     inkscape:pageopacity="0.0"
     inkscape:pageshadow="2"
     inkscape:zoom="12.8"
     inkscape:cx="10"
     inkscape:cy="10"
     inkscape:document-units="px"
     inkscape:current-layer="layer1"
     showgrid="false"
     inkscape:window-width="1920"
     inkscape:window-height="1000"
     inkscape:window-x="-11"
     inkscape:window-y="-11"
     inkscape:window-maximized="1"
     inkscape:grid-bbox="true" />
  <metadata
     id="metadata1380">
    <rdf:RDF>
      <cc:Work
         rdf:about="">
        <dc:format>image/svg+xml</dc:format>
        <dc:type
           rdf:resource="http://purl.org/dc/dcmitype/StillImage" />
        <dc:title></dc:title>
      </cc:Work>
    </rdf:RDF>
  </metadata>
  <g
     inkscape:label="Layer 1"
     inkscape:groupmode="layer"
     id="layer1"
     transform="translate(0,5)">
    <g
       id="g824"
       transform="matrix(4.3605898,0,0,5.0738487,-433.68516,-602.74847)">
      <path
         sodipodi:nodetypes="ccccccccccccccccccccccc"
         inkscape:connector-curvature="0"
         id="path826"
         d="m 101.26019,122.41079 c 0.0274,-0.31252 0.0358,-0.66942 0.25704,-0.91508 0.20358,-0.21224 0.39856,0.1204 0.39888,0.31248 0.0596,0.1792 0.0722,0.59658 0.0722,0.59658 0.25795,0.002 0.54573,-0.002 0.80367,0.001 0.1132,-0.62198 0.1966,-1.57593 0.26928,-1.82505 0.0744,-0.35248 0.55981,-0.31234 0.73991,-0.1004 0.21106,0.22132 0.35852,0.6053 0.1668,0.88123 -0.14,0.21414 -0.46768,-0.0422 -0.54818,-2.4e-4 -0.0218,0.2041 -0.0434,0.40818 -0.0652,0.61226 0.39439,0.1512 0.88805,0.0816 1.20509,-0.2055 0.25045,-0.24216 0.24831,-0.61173 0.34573,-0.92467 0.1098,-0.5146 0.26084,-1.05605 0.1296,-1.58065 -0.1034,-0.34692 -0.296,-0.66665 -0.57223,-0.90393 -0.2463,-0.2096 -0.52544,-0.43488 -0.86634,-0.43138 -0.70091,-0.0476 -1.40997,-0.0898 -2.10918,-0.002 -0.24396,0.0528 -0.48412,0.1356 -0.68521,0.29194 -0.36456,0.26144 -0.72638,0.57546 -0.867343,1.01709 -0.182201,0.43542 -0.165601,0.94231 0.0498,1.36313 0.122803,0.30048 0.339283,0.5694 0.396143,0.89301 l 0.0814,0.91432 c 0.26608,0.002 0.53217,0.004 0.79825,0.006 z"
         style="fill:#0d0d0d;fill-opacity:1;stroke:#000000;stroke-width:0.01510226px;stroke-linecap:butt;stroke-linejoin:miter;stroke-opacity:1" />
      <ellipse
         ry="0.16180992"
         rx="0.17259726"
         cy="119.10837"
         cx="103.89857"
         id="path832"
         style="opacity:1;fill:#ffffff;fill-opacity:1;stroke:none;stroke-width:1.25851655;stroke-miterlimit:4;stroke-dasharray:none;stroke-opacity:1" />
    </g>
  </g>
</svg>
