<?xml version="1.0" encoding="UTF-8" standalone="no"?>
<!-- Created with Inkscape (http://www.inkscape.org/) -->

<svg
   xmlns:dc="http://purl.org/dc/elements/1.1/"
   xmlns:cc="http://creativecommons.org/ns#"
   xmlns:rdf="http://www.w3.org/1999/02/22-rdf-syntax-ns#"
   xmlns:svg="http://www.w3.org/2000/svg"
   xmlns="http://www.w3.org/2000/svg"
   xmlns:sodipodi="http://sodipodi.sourceforge.net/DTD/sodipodi-0.dtd"
   xmlns:inkscape="http://www.inkscape.org/namespaces/inkscape"
   width="45px"
   height="45px"
   viewBox="0 0 45 45"
   version="1.1"
   id="SVGRoot"
   inkscape:version="0.92.4 (5da689c313, 2019-01-14)"
   sodipodi:docname="police.svg">
  <defs
     id="defs1393" />
  <sodipodi:namedview
     id="base"
     pagecolor="#ffffff"
     bordercolor="#666666"
     borderopacity="1.0"
     inkscape:pageopacity="0.0"
     inkscape:pageshadow="2"
     inkscape:zoom="5.6888889"
     inkscape:cx="22.5"
     inkscape:cy="22.5"
     inkscape:document-units="px"
     inkscape:current-layer="layer1"
     showgrid="false"
     inkscape:window-width="1920"
     inkscape:window-height="1000"
     inkscape:window-x="-11"
     inkscape:window-y="-11"
     inkscape:window-maximized="1"
     inkscape:grid-bbox="true" />
  <metadata
     id="metadata1396">
    <rdf:RDF>
      <cc:Work
         rdf:about="">
        <dc:format>image/svg+xml</dc:format>
        <dc:type
           rdf:resource="http://purl.org/dc/dcmitype/StillImage" />
        <dc:title></dc:title>
      </cc:Work>
    </rdf:RDF>
  </metadata>
  <g
     inkscape:label="Layer 1"
     inkscape:groupmode="layer"
     id="layer1">
    <g
       transform="matrix(0.4866289,0,0,0.4866289,-1.8308196,-1.831445)"
       id="g10">
      <path
         inkscape:connector-curvature="0"
         d="m 56.7,46.5 v 0 -6.7 H 43.3 v 6.7 0 c 0,3.7 6.7,8.5 6.7,8.5 0,0 6.7,-4.8 6.7,-8.5 z"
         id="path2" />
      <path
         inkscape:connector-curvature="0"
         d="M 82.2,60.2 C 82.1,53 80.5,13 59.3,10.3 59.2,7.4 55.1,5 50,5 44.9,5 40.8,7.4 40.7,10.3 19.5,13 17.9,53 17.8,60.2 24,65 36.3,68.3 50,68.3 63.7,68.3 75.9,65 82.2,60.2 Z M 51.3,16.5 v 0.9 h -0.8 v 0.8 h -0.9 v -0.8 h -0.8 v -0.9 h 0.8 v -0.8 h 0.9 v 0.8 z m 0,3.2 c 0,0.7 -0.6,1.3 -1.3,1.3 -0.7,0 -1.3,-0.6 -1.3,-1.3 0,-0.7 0.6,-1.3 1.3,-1.3 0.7,0 1.3,0.6 1.3,1.3 z m -6.9,0.9 c 1.4,-0.4 4.1,0.8 5.3,0.8 h 0.7 c 1.1,0 3.9,-1.2 5.3,-0.8 1.7,0.5 1.1,2.9 1.1,3 -0.1,0.1 -1.5,6.2 -1.5,6.3 H 44.9 c -0.1,-0.1 -1.5,-6.2 -1.5,-6.3 -0.1,-0.2 -0.7,-2.5 1,-3 z m -9.6,40.5 v -8.9 l -6.3,-6.3 6.3,-6.3 v -8.9 h 30.3 v 8.9 l 6.3,6.3 -6.3,6.3 v 8.9 H 56.2 L 50,67.3 43.7,61 h -8.9 z"
         id="path4" />
      <path
         inkscape:connector-curvature="0"
         d="m 65,46.2 c 0,-8.3 -6.7,-15 -15,-15 -8.3,0 -15,6.7 -15,15 0,8.3 6.7,15 15,15 8.3,0 15,-6.7 15,-15 z m -25.4,0 c 0,-5.7 4.7,-10.4 10.4,-10.4 5.7,0 10.4,4.7 10.4,10.4 0,5.7 -4.7,10.4 -10.4,10.4 -5.7,0 -10.4,-4.7 -10.4,-10.4 z"
         id="path6" />
      <path
         inkscape:connector-curvature="0"
         d="M 16.2,62.4 12,65.2 c 0,0 -6.5,14.9 35.9,29.4 0,0 0.5,0.4 2,0.4 1.5,0 2,-0.4 2,-0.4 C 94.5,80.1 88,65.2 88,65.2 L 83.9,62.4 C 77,67.6 64.6,71.1 50,71.1 35.4,71.1 23,67.6 16.2,62.4 Z"
         id="path8" />
    </g>
  </g>
</svg>
