<svg version="1" xmlns="http://www.w3.org/2000/svg" width="1386.667" height="1386.667" viewBox="0 0 1040.000000 1040.000000"><path d="M498 11.6c-1.9.2-9.1.9-16 1.4-34.3 2.9-73.2 12.3-108.7 26.2-16.4 6.4-48.1 22.6-63.8 32.5-63.7 40.3-113.1 95-146.1 161.8-21.2 42.7-33.3 84.2-39 133-2.2 18.7-2.5 61.6-.6 78.5 8.6 73.9 41.3 146 98.6 217.5 16.6 20.7 40.4 47.7 63.6 72 19.8 20.8 30.6 33.8 53.9 65 36.2 48.4 89.3 121.9 142 196.8 8.4 11.9 17.3 23.5 19.7 25.6 10.6 9.3 27.2 9.3 38-.2 2.4-2.1 8.5-9.8 13.6-17 44.7-64.2 121.4-170.5 155.6-215.7 18-23.8 21.4-27.8 49.2-58 64.1-69.5 95.3-111.5 121.3-163.5 20.7-41.4 32.6-80.1 37.9-123 1.9-16.1 1.6-59.1-.6-78-5.6-48.4-18-90.6-38.9-133-47.5-96.1-131-168.7-232.9-202.6-24.7-8.1-53.7-14.4-80.8-17.5-12.7-1.4-58.4-2.7-66-1.8zm62 61.9C658.7 85.2 747.7 140 802.5 223c29.7 45 47.1 92.5 54.1 147.5 2.2 17.2 2.5 55.3.5 69.5-6 44.3-20.6 83.8-47.2 128.5-21.8 36.5-47 68.4-96.8 122.5-11.9 12.9-24.3 26.6-27.7 30.5-16.4 18.9-76.9 101-137.8 187-13.7 19.3-25.4 35.6-26.1 36.4-1.1 1.1-3.8-2.3-16-19.5-61.3-86.6-125.4-174-144.5-197.2-8.9-10.9-13.1-15.4-43.6-48.3-48.8-52.5-77.1-90.2-99-132.3-18-34.7-28.7-66.9-34.1-103.3-2.3-15.9-2.3-55.3 0-73.9 9.7-77.4 42.8-145.6 97.2-199.9 59-59 133.7-92.6 219.5-98.9 10.8-.8 45.7.4 59 1.9z"/><path d="M501.7 240.1c-35.6 4.1-69 19.8-94.5 44.3-30.9 29.8-47.8 65-51.2 107.2-6 74.4 40.3 144.7 111 168.7 20 6.8 28.8 8.2 53.5 8.2 19.1 0 23.3-.3 32.4-2.3 43.9-9.6 80.4-34 104.3-69.7 40-59.8 37.4-137.5-6.7-194-34.9-44.8-92.5-69-148.8-62.4z"/></svg>