<svg version="1" xmlns="http://www.w3.org/2000/svg" width="933.333" height="933.333" viewBox="0 0 700.000000 700.000000"><path d="M148.8 12.4c-.1.2-3.4.7-7.3 1.1-16.2 1.6-24.5 3.1-39.3 6.9-34.3 9-64 30.4-77.6 56-1.4 2.7-3.1 5.5-3.7 6.2-.6.8-.8 1.4-.5 1.4.4 0 0 1.2-.8 2.7-2.5 4.4-5.6 14.9-8.1 26.8-2.1 9.9-2.3 13.3-2 33.5.1 12.4.5 23.4.8 24.5.2 1.1.8 4.2 1.1 7 .6 4.2 2.2 13.2 4.2 23.3 8 39.8 35.6 108.2 67.4 166.7 1.8 3.3 4.8 8.9 6.8 12.5 1.9 3.6 4.3 7.7 5.4 9.2 1 1.4 1.8 2.9 1.8 3.3 0 .4 1.4 3.1 3.2 5.9 1.7 2.8 3.6 6 4.2 7.1 3.4 6.1 17.6 29.5 29.6 48.5 8.6 13.7 44.2 66.5 52.4 77.7 1.7 2.4 4.8 6.6 6.9 9.5 7.9 11 19 26.2 19.8 27.2.5.6 7.1 9.2 14.6 19.1 23 30.4 22.1 29.2 50.7 63.9 23.4 28.2 27.8 33 31.7 34.6 5.8 2.4 8.5.6 23.4-16.4 3.9-4.4 7.7-8.7 8.5-9.6.8-.9 5.3-5.9 10-11.1 4.6-5.2 9.1-10.1 10-11 .8-.9 6.7-7.1 13-13.9 18.9-20.1 48.2-50 87.8-89.4C543 456 571 427.8 584.1 413.9c64.7-68.4 93.3-113.4 96.5-151.4 1.1-13.4.6-33.9-1.1-39.5-.2-.8-.6-2.6-.9-4-6.6-38.7-33.6-76.8-70.6-99.6-19.9-12.3-46.1-21.7-69-24.9-2.5-.3-5.4-.9-6.4-1.2-3.5-1-38.1-.6-45.6.6-18.4 2.9-38 9-52.9 16.5-10.8 5.5-27.2 16.4-34.3 22.9-.8.6-2.8 2.5-4.5 4.1l-3.1 2.8-7.2-7.3c-38.4-39.3-53.1-53.4-67-64.1-1.9-1.4-5.7-4.4-8.5-6.5-17.3-13.4-36.6-24.6-60-34.8-11.1-4.8-39.2-12-55-14-5.1-.7-45-1.6-45.7-1.1z"/></svg>