<?xml version="1.0" encoding="UTF-8" standalone="no"?>
<svg
   xmlns:dc="http://purl.org/dc/elements/1.1/"
   xmlns:cc="http://creativecommons.org/ns#"
   xmlns:rdf="http://www.w3.org/1999/02/22-rdf-syntax-ns#"
   xmlns:svg="http://www.w3.org/2000/svg"
   xmlns="http://www.w3.org/2000/svg"
   viewBox="0 0 568 569.33331"
   height="569.33331"
   width="568"
   xml:space="preserve"
   id="svg2"
   version="1.1"><metadata
     id="metadata8"><rdf:RDF><cc:Work
         rdf:about=""><dc:format>image/svg+xml</dc:format><dc:type
           rdf:resource="http://purl.org/dc/dcmitype/StillImage" /></cc:Work></rdf:RDF></metadata><defs
     id="defs6"><clipPath
       id="clipPath20"
       clipPathUnits="userSpaceOnUse"><path
         id="path18"
         d="M 0,4263.26 H 4260 V 3.26172 H 0 Z" /></clipPath></defs><g
     transform="matrix(1.3333333,0,0,-1.3333333,0,569.33333)"
     id="g10"><g
       transform="scale(0.1)"
       id="g12"><g
         id="g14"><g
           clip-path="url(#clipPath20)"
           id="g16"><path
             id="path22"
             style="fill:#1b6fc1;fill-opacity:1;fill-rule:nonzero;stroke:none"
             d="M 4257.34,2136.62 C 4257.34,962.129 3305.2,10.0195 2130.7,10.0195 956.211,10.0195 4.05859,962.129 4.05859,2136.62 c 0,1174.53 952.15241,2126.64 2126.64141,2126.64 1174.5,0 2126.64,-952.11 2126.64,-2126.64" /><path
             id="path24"
             style="fill:#ffffff;fill-opacity:1;fill-rule:nonzero;stroke:none"
             d="m 3218.44,3544.24 c -17.07,5.74 -37.85,-6.41 -55.08,-29.34 l -433.01,203.01 c -5.31,19.65 -15.66,37.26 -29.76,51.21 l -0.12,421.44 c -53.05,15.67 -106.8,27 -161.52,38.52 v -460.94 c -13.4,-13.59 -23.36,-30.58 -28.64,-49.53 L 2075.82,3514.9 c -17.23,22.93 -38.01,35.08 -55.08,29.34 -26.56,-9.03 -34.1,-57.62 -16.83,-108.68 17.22,-51.09 52.69,-85.27 79.18,-76.28 0.5,0.15 6.99,2.07 9.68,3.28 l 476.45,223.4 c 15.35,-7.74 32.66,-12.15 51.05,-12.15 18.09,0 35.16,4.29 50.39,11.83 l 475.79,-223.08 c 2.65,-1.21 9.14,-3.13 9.64,-3.28 26.49,-8.99 62,25.19 79.18,76.28 17.27,51.06 9.73,99.65 -16.83,108.68" /><path
             id="path26"
             style="fill:#ffffff;fill-opacity:1;fill-rule:nonzero;stroke:none"
             d="M 789.301,1978.96 H 2078.32 c 25.16,0 54.84,10.78 60.9,46.92 5,30.08 -21.68,60.23 -21.68,60.23 0,0 -174.81,203.13 -199.81,232.15 -46.25,53.67 -125.7,48.83 -125.7,48.83 L 11.9883,2367.24 C 4.01953,2305.21 0.230469,2242.79 0.230469,2171.46 c 0,-59.53 -1.910159,-132.3 5.429691,-193.51 228.74984,0 480.28084,1.01 747.81984,1.01 z" /><path
             id="path28"
             style="fill:#ffffff;fill-opacity:1;fill-rule:nonzero;stroke:none"
             d="m 1544.02,1122.21 c -2.73,-18.4 -20.47,-33.4 -38.28,-33.4 H 1212.3 c -19.25,0 -35.82,15 -38.59,33.4 l -115.74,773.9 c -2.74,18.48 9.96,33.52 28.51,33.52 h 544.89 c 18.55,0 31.17,-15.04 28.4,-33.52 z" /><path
             id="path30"
             style="fill:#ffffff;fill-opacity:1;fill-rule:nonzero;stroke:none"
             d="m 1156.17,3334.55 c 0,-111.25 90.28,-201.64 201.64,-201.64 111.33,0 201.6,90.39 201.6,201.64 0,111.33 -90.27,201.6 -201.6,201.6 -111.36,0 -201.64,-90.27 -201.64,-201.6" /><path
             id="path32"
             style="fill:#ffffff;fill-opacity:1;fill-rule:nonzero;stroke:none"
             d="m 3072.23,836.352 c -303.71,0 -552.07,240.968 -564.26,541.748 l 85.7,148.25 h 720.59 c 29.8,0 53.9,20.27 53.9,45.5 v 179.89 c 0,0.19 -0.04,0.35 -0.04,0.54 v 129.53 c 161.14,-99.57 268.76,-277.73 268.76,-480.62 0,-311.45 -253.33,-564.838 -564.65,-564.838 m 295.89,1227.888 v 381.64 c 0,29.57 -26.28,53.51 -58.51,53.51 h -231.33 c -32.3,0 -58.44,-23.94 -58.44,-53.51 v -308.71 h -454.53 c -29.65,0 -53.59,-23.95 -53.59,-53.56 v -66.33 c 0,-29.61 23.94,-53.63 53.59,-53.63 h 454.53 V 1797.21 H 2478.2 c -0.82,0 -1.6,-0.08 -2.38,-0.12 -12.03,0 -24.41,0 -26.87,0.04 -13.91,0.27 -27.39,-7.27 -33.33,-18.01 l -333.74,-571.88 -44.85,28.68 c -21.56,13.79 -48.94,9.33 -61.29,-9.93 l -27.65,-43.24 c -12.35,-19.33 -4.93,-46.09 16.64,-59.88 l 92.93,-59.41 v -0.04 l 155.43,-99.381 c 21.56,-13.789 48.98,-9.301 61.32,10 l 110.75,191.601 c 98.08,-285.269 368.9,-490.929 687.07,-490.929 400.47,0 726.29,325.889 726.29,726.479 0,295.12 -177.04,549.49 -430.4,663.05" /><path
             id="path34"
             style="fill:#ffffff;fill-opacity:1;fill-rule:nonzero;stroke:none"
             d="M 2176.37,2661.5 1837.7,2964 1720.62,3072.05 c -5.85,5.9 -13.04,9.88 -28.08,9.92 -7.15,-0.08 -658.09,-0.08 -665.27,0 -15,-0.04 -22.23,-4.02 -28.09,-9.92 L 882.109,2964 543.48,2661.5 c -19.609,-17.5 -20.98,-47.97 -3.05,-68.04 l 65.82,-73.72 c 17.93,-20.03 48.359,-22.14 67.969,-4.6 l 345.121,308.28 38.71,30.19 v -396.05 c 0,-22.7 16.87,-41.02 37.77,-41.02 h 528.2 c 20.86,0 37.74,18.32 37.74,41.02 v 396.05 l 38.75,-30.19 345.11,-308.28 c 19.61,-17.54 50.04,-15.43 67.97,4.6 l 65.82,73.72 c 17.89,20.07 16.57,50.54 -3.04,68.04" /><path
             id="path36"
             style="fill:#ffffff;fill-opacity:1;fill-rule:nonzero;stroke:none"
             d="m 2993.83,2742.87 c 0,-111.29 90.35,-201.56 201.64,-201.56 111.33,0 201.68,90.27 201.68,201.56 0,111.41 -90.35,201.6 -201.68,201.6 -111.29,0 -201.64,-90.19 -201.64,-201.6" /></g></g></g></g></svg>